<svg xmlns="http://www.w3.org/2000/svg" xmlns:xlink="http://www.w3.org/1999/xlink" width="840" zoomAndPan="magnify" viewBox="0 0 630 629.999998" height="840" preserveAspectRatio="xMidYMid meet" version="1.0"><path fill="#1fbcb6" d="M 215.085938 83.671875 C 217.597656 84.460938 220.203125 84.753906 222.960938 84.65625 C 227.292969 84.605469 231.574219 85.097656 235.757812 86.132812 C 236.691406 86.96875 237.875 87.265625 239.203125 87.117188 C 239.695312 87.117188 240.1875 87.117188 240.679688 87.117188 C 240.730469 87.414062 240.875 87.660156 241.171875 87.855469 C 242.15625 88.101562 243.140625 88.199219 244.125 88.101562 C 285.566406 98.191406 315.835938 122.308594 334.933594 160.453125 C 340.445312 172.953125 344.285156 185.898438 346.5 199.335938 C 346.304688 200.566406 346.597656 201.550781 347.484375 202.289062 C 348.765625 209.082031 349.257812 215.972656 348.960938 222.960938 C 350.140625 222.960938 351.324219 222.714844 352.40625 222.222656 C 369.632812 213.019531 387.992188 207.753906 407.53125 206.472656 C 435.4375 206.128906 463.296875 206.128906 491.203125 206.472656 C 515.417969 209.820312 533.875 221.878906 546.574219 242.648438 C 549.429688 248.652344 551.691406 254.902344 553.464844 261.351562 C 558.535156 294.378906 558.386719 327.355469 552.972656 360.28125 C 545.984375 390.992188 530.28125 416.144531 505.96875 435.832031 C 486.527344 450.792969 464.527344 459.851562 440.015625 462.902344 C 433.320312 463.640625 426.578125 464.230469 419.835938 464.625 C 411.960938 464.527344 404.085938 464.429688 396.210938 464.378906 C 395.914062 463.445312 395.71875 462.460938 395.71875 461.425781 C 396.113281 441.34375 396.359375 421.214844 396.457031 401.132812 C 397.144531 400.789062 397.882812 400.542969 398.671875 400.394531 C 408.367188 400 418.0625 399.851562 427.710938 399.902344 C 453.058594 397.589844 471.859375 385.382812 484.066406 363.234375 C 486.429688 358.707031 488.25 353.933594 489.480469 348.960938 C 491.351562 333.949219 492.089844 318.839844 491.695312 303.679688 C 491.792969 294.671875 491.695312 285.617188 491.449219 276.609375 C 491.253906 276.3125 491.007812 276.167969 490.710938 276.117188 C 490.957031 274.050781 490.121094 272.671875 488.25 271.933594 C 465.167969 270.851562 442.035156 270.359375 418.851562 270.457031 C 402.066406 269.964844 387.15625 274.886719 374.0625 285.222656 C 369.878906 289.40625 365.695312 293.589844 361.511719 297.773438 C 354.128906 307.863281 349.996094 319.183594 349.207031 331.734375 C 349.058594 402.953125 348.863281 474.125 348.714844 545.34375 C 348.371094 545.738281 347.976562 545.886719 347.484375 545.835938 C 326.320312 545.835938 305.15625 545.835938 283.992188 545.835938 C 284.140625 435.683594 283.992188 325.582031 283.5 215.578125 C 283.304688 203.027344 279.757812 191.558594 272.917969 181.125 C 263.222656 165.964844 249.6875 155.925781 232.3125 151.101562 C 231.328125 150.414062 230.195312 150.066406 228.867188 150.117188 C 225.914062 149.871094 222.960938 149.476562 220.007812 148.886719 C 200.023438 148.296875 179.992188 148.296875 159.960938 148.886719 C 153.070312 149.625 146.179688 150.019531 139.289062 150.117188 C 138.355469 172.265625 138.109375 194.414062 138.550781 216.5625 C 141.699219 242.84375 155.234375 261.449219 179.15625 272.425781 C 182.898438 273.65625 186.6875 274.691406 190.476562 275.625 C 190.671875 275.96875 191.019531 276.214844 191.460938 276.363281 C 192.742188 276.609375 194.070312 276.707031 195.398438 276.609375 C 203.175781 277.152344 211 277.152344 218.777344 276.609375 C 223.648438 276.757812 228.472656 277.25 233.296875 278.085938 C 232.753906 296.640625 232.65625 315.148438 233.050781 333.703125 C 234.230469 336.261719 233.984375 338.675781 232.3125 340.839844 C 211.789062 342.710938 191.460938 341.527344 171.28125 337.394531 C 155.433594 333.308594 140.960938 326.417969 127.96875 316.722656 C 112.515625 305.007812 99.765625 290.832031 89.824219 274.148438 C 78.160156 251.3125 72.546875 227.046875 73.089844 201.304688 C 72.546875 182.898438 73.039062 164.539062 74.566406 146.179688 C 78.699219 119.601562 93.023438 100.800781 117.632812 89.824219 C 124.71875 86.820312 132.101562 84.851562 139.78125 83.917969 C 164.882812 83.671875 189.984375 83.574219 215.085938 83.671875 Z M 215.085938 83.671875 " fill-opacity="1" fill-rule="evenodd"/><path fill="#1fbcb6" d="M 215.085938 83.671875 C 217.84375 83.621094 220.449219 83.917969 222.960938 84.65625 C 220.203125 84.753906 217.597656 84.410156 215.085938 83.671875 Z M 215.085938 83.671875 " fill-opacity="1" fill-rule="evenodd"/><path fill="#1fbcb6" d="M 235.757812 86.132812 C 237.039062 86.230469 238.167969 86.574219 239.203125 87.117188 C 237.875 87.265625 236.691406 86.921875 235.757812 86.132812 Z M 235.757812 86.132812 " fill-opacity="1" fill-rule="evenodd"/><path fill="#1fbcb6" d="M 240.679688 87.117188 C 241.960938 87.214844 243.089844 87.558594 244.125 88.101562 C 243.140625 88.199219 242.15625 88.101562 241.171875 87.855469 C 240.875 87.660156 240.730469 87.414062 240.679688 87.117188 Z M 240.679688 87.117188 " fill-opacity="1" fill-rule="evenodd"/><path fill="#1fbcb6" d="M 228.867188 150.117188 C 230.195312 150.066406 231.328125 150.414062 232.3125 151.101562 C 230.984375 151.152344 229.851562 150.804688 228.867188 150.117188 Z M 228.867188 150.117188 " fill-opacity="1" fill-rule="evenodd"/><path fill="#1fbcb6" d="M 346.5 199.335938 C 347.089844 200.171875 347.433594 201.15625 347.484375 202.289062 C 346.597656 201.550781 346.253906 200.566406 346.5 199.335938 Z M 346.5 199.335938 " fill-opacity="1" fill-rule="evenodd"/><path fill="#1fbcb6" d="M 283.5 215.578125 C 283.992188 325.582031 284.140625 435.683594 283.992188 545.835938 C 305.15625 545.835938 326.320312 545.835938 347.484375 545.835938 C 326.222656 546.328125 304.910156 546.476562 283.5 546.328125 C 283.5 436.078125 283.5 325.828125 283.5 215.578125 Z M 283.5 215.578125 " fill-opacity="1" fill-rule="evenodd"/><path fill="#1fbcb6" d="M 190.476562 275.625 C 192.199219 275.820312 193.824219 276.167969 195.398438 276.609375 C 194.070312 276.707031 192.742188 276.609375 191.460938 276.363281 C 191.019531 276.214844 190.671875 275.96875 190.476562 275.625 Z M 190.476562 275.625 " fill-opacity="1" fill-rule="evenodd"/><path fill="#1fbcb6" d="M 490.710938 276.117188 C 491.007812 276.167969 491.253906 276.3125 491.449219 276.609375 C 491.695312 285.617188 491.792969 294.671875 491.695312 303.679688 C 491.351562 294.523438 491.007812 285.371094 490.710938 276.117188 Z M 490.710938 276.117188 " fill-opacity="1" fill-rule="evenodd"/></svg>