<?xml version="1.0" standalone="no"?>
<!DOCTYPE svg PUBLIC "-//W3C//DTD SVG 1.1//EN" "http://www.w3.org/Graphics/SVG/1.1/DTD/svg11.dtd">
<svg version="1.1" id="Layer_1" xmlns="http://www.w3.org/2000/svg" xmlns:xlink="http://www.w3.org/1999/xlink" x="0px" y="0px" viewBox="0 0 840 840" style="enable-background:new 0 0 840 840;" xml:space="preserve" width="840" height="840">
<style type="text/css">
	.st0{fill:#26408A;}
	.st1{fill:#2D3E6F;}
	.st2{fill:#68C5B2;}
</style>
<g>
	<path class="st0" d="M219,613.2h5.7v10.8l10.2-10.8h7.1l-10.2,10.3l11.1,15.7h-7.2l-7.8-11.7l-3.3,3.3v8.4H219V613.2L219,613.2z"/>
	<path class="st0" d="M249,631c0.1,1.7,0.5,2.9,1.3,3.6c0.8,0.8,1.9,1.2,3.4,1.2c1,0,1.9-0.3,2.7-0.8s1.2-1.1,1.4-1.7h4.5   c-0.7,2.2-1.8,3.8-3.4,4.8c-1.5,1-3.3,1.5-5.5,1.5c-1.5,0-2.8-0.2-4-0.7c-1.2-0.5-2.2-1.2-3-2s-1.5-1.9-1.9-3.1s-0.7-2.5-0.7-4   s0.2-2.7,0.7-3.9s1.1-2.3,2-3.2s1.9-1.6,3-2.1s2.5-0.8,3.9-0.8c1.6,0,3,0.3,4.2,0.9s2.2,1.5,2.9,2.5c0.8,1,1.3,2.2,1.7,3.6   s0.5,2.7,0.4,4.2L249,631L249,631z M257.4,627.7c-0.2-1.3-0.7-2.3-1.3-3s-1.6-1-2.8-1c-0.8,0-1.5,0.1-2.1,0.4c-0.6,0.3-1,0.6-1.3,1   s-0.6,0.8-0.7,1.3s-0.2,0.9-0.2,1.2L257.4,627.7L257.4,627.7z"/>
	<path class="st0" d="M269.9,631c0.1,1.7,0.5,2.9,1.3,3.6c0.8,0.8,1.9,1.2,3.4,1.2c1,0,1.9-0.3,2.7-0.8s1.2-1.1,1.4-1.7h4.5   c-0.7,2.2-1.8,3.8-3.4,4.8c-1.5,1-3.3,1.5-5.5,1.5c-1.5,0-2.8-0.2-4-0.7c-1.2-0.5-2.2-1.2-3-2c-0.8-0.9-1.5-1.9-1.9-3.1   s-0.7-2.5-0.7-4s0.2-2.7,0.7-3.9s1.1-2.3,2-3.2s1.9-1.6,3-2.1c1.2-0.5,2.5-0.8,3.9-0.8c1.6,0,3,0.3,4.2,0.9s2.2,1.5,2.9,2.5   c0.8,1,1.3,2.2,1.7,3.6s0.5,2.7,0.4,4.2L269.9,631L269.9,631z M278.3,627.7c-0.2-1.3-0.7-2.3-1.3-3s-1.6-1-2.8-1   c-0.8,0-1.5,0.1-2.1,0.4c-0.5,0.3-1,0.6-1.3,1s-0.6,0.8-0.7,1.3s-0.2,0.9-0.2,1.2L278.3,627.7L278.3,627.7z"/>
	<path class="st0" d="M286.5,620.3h4.9v2.4h0.1c0.6-1,1.4-1.8,2.4-2.2c1-0.5,2-0.7,3.2-0.7c1.5,0,2.8,0.3,3.8,0.8s2,1.3,2.7,2.2   c0.7,0.9,1.2,2,1.6,3.2c0.3,1.2,0.5,2.5,0.5,3.8c0,1.3-0.2,2.5-0.5,3.6c-0.3,1.2-0.9,2.2-1.5,3.1c-0.7,0.9-1.5,1.6-2.6,2.2   s-2.2,0.8-3.6,0.8c-1.1,0-2.2-0.2-3.2-0.7c-1-0.5-1.8-1.2-2.4-2.1h-0.1v9h-5.2L286.5,620.3L286.5,620.3z M296,635.8   c0.9,0,1.6-0.2,2.1-0.5s1-0.8,1.4-1.3s0.6-1.2,0.8-1.9c0.1-0.7,0.2-1.5,0.2-2.2s-0.1-1.5-0.2-2.2s-0.4-1.4-0.8-2s-0.8-1-1.4-1.4   s-1.3-0.5-2.1-0.5s-1.6,0.2-2.1,0.5c-0.6,0.3-1,0.8-1.4,1.4s-0.6,1.2-0.8,2s-0.2,1.5-0.2,2.2s0.1,1.5,0.2,2.2s0.4,1.3,0.8,1.9   s0.8,1,1.4,1.3S295.2,635.8,296,635.8L296,635.8z"/>
	<path class="st0" d="M336.5,639.2h-4.9v-2.6h-0.1c-0.7,1.1-1.5,1.9-2.5,2.4c-1,0.5-2.1,0.8-3.2,0.8c-1.4,0-2.5-0.2-3.4-0.6   c-0.9-0.4-1.6-0.9-2.1-1.6s-0.9-1.5-1.1-2.4c-0.2-1-0.3-2-0.3-3.2v-11.6h5.2V631c0,1.5,0.2,2.7,0.8,3.5c0.5,0.8,1.4,1.2,2.6,1.2   c1.4,0,2.4-0.4,3.1-1.3s1-2.2,1-4.1v-9.9h5.2L336.5,639.2L336.5,639.2z"/>
	<path class="st0" d="M340.5,620.3h4.9v2.4h0.1c0.6-1,1.4-1.8,2.4-2.2c1-0.5,2-0.7,3.2-0.7c1.5,0,2.8,0.3,3.8,0.8s2,1.3,2.7,2.2   c0.7,0.9,1.2,2,1.6,3.2c0.3,1.2,0.5,2.5,0.5,3.8c0,1.3-0.2,2.5-0.5,3.6c-0.3,1.2-0.9,2.2-1.5,3.1c-0.7,0.9-1.5,1.6-2.6,2.2   s-2.2,0.8-3.6,0.8c-1.1,0-2.2-0.2-3.2-0.7c-1-0.5-1.8-1.2-2.4-2.1h-0.1v9h-5.2L340.5,620.3L340.5,620.3z M350,635.8   c0.9,0,1.6-0.2,2.1-0.5s1-0.8,1.4-1.3s0.6-1.2,0.8-1.9c0.1-0.7,0.2-1.5,0.2-2.2s-0.1-1.5-0.2-2.2s-0.4-1.4-0.8-2s-0.8-1-1.4-1.4   s-1.3-0.5-2.1-0.5s-1.6,0.2-2.1,0.5c-0.6,0.3-1,0.8-1.4,1.4s-0.6,1.2-0.8,2s-0.2,1.5-0.2,2.2s0.1,1.5,0.2,2.2s0.4,1.3,0.8,1.9   c0.4,0.5,0.8,1,1.4,1.3S349.1,635.8,350,635.8L350,635.8z"/>
	<path class="st0" d="M394.3,639.2H389l-3.4-12.6h-0.1l-3.2,12.6H377l-6-18.8h5.5l3.5,12.8h0.1l3.1-12.8h5l3.2,12.7h0.1l3.5-12.7   h5.3L394.3,639.2L394.3,639.2z"/>
	<path class="st0" d="M407.8,617.4h-5.2v-4.3h5.2V617.4z M402.6,620.3h5.2v18.8h-5.2V620.3z"/>
	<path class="st0" d="M418.4,620.3h3.8v3.5h-3.8v9.3c0,0.9,0.1,1.5,0.4,1.8s0.9,0.4,1.8,0.4c0.6,0,1.1,0,1.6-0.2v4   c-0.4,0.1-0.9,0.1-1.5,0.2c-0.5,0-1.1,0-1.6,0c-0.8,0-1.6,0-2.3-0.2s-1.4-0.3-1.9-0.7c-0.5-0.3-1-0.8-1.3-1.4   c-0.3-0.6-0.5-1.3-0.5-2.3v-11.1h-3.1v-3.5h3.1v-5.6h5.2V620.3L418.4,620.3z"/>
	<path class="st0" d="M424.7,613.2h5.2v9.8h0.1c0.7-1.1,1.5-1.9,2.5-2.4c1-0.5,2-0.8,3-0.8c1.4,0,2.5,0.2,3.4,0.6   c0.9,0.4,1.6,0.9,2.1,1.6s0.9,1.5,1.1,2.4c0.2,1,0.3,2,0.3,3.2v11.6h-5.2v-10.6c0-1.5-0.2-2.7-0.8-3.5c-0.5-0.8-1.4-1.2-2.6-1.2   c-1.4,0-2.4,0.4-3.1,1.3s-1,2.2-1,4.1v9.9h-5.2L424.7,613.2L424.7,613.2z"/>
	<path class="st0" d="M462.9,620.3h3.8v3.5h-3.8v9.3c0,0.9,0.1,1.5,0.4,1.8s0.9,0.4,1.8,0.4c0.6,0,1.1,0,1.6-0.2v4   c-0.4,0.1-0.9,0.1-1.5,0.2c-0.5,0-1.1,0-1.6,0c-0.8,0-1.6,0-2.3-0.2s-1.4-0.3-1.9-0.7c-0.5-0.3-1-0.8-1.3-1.4   c-0.3-0.6-0.5-1.3-0.5-2.3v-11.1h-3.1v-3.5h3.1v-5.6h5.2V620.3L462.9,620.3z"/>
	<path class="st0" d="M469.2,613.2h5.2v9.8h0.1c0.7-1.1,1.5-1.9,2.5-2.4c1-0.5,2-0.8,3-0.8c1.4,0,2.5,0.2,3.4,0.6   c0.9,0.4,1.6,0.9,2.1,1.6s0.9,1.5,1.1,2.4c0.2,1,0.3,2,0.3,3.2v11.6h-5.2v-10.6c0-1.5-0.2-2.7-0.8-3.5c-0.5-0.8-1.4-1.2-2.6-1.2   c-1.4,0-2.4,0.4-3.1,1.3s-1,2.2-1,4.1v9.9h-5.2L469.2,613.2L469.2,613.2z"/>
	<path class="st0" d="M495,631c0.1,1.7,0.5,2.9,1.3,3.6c0.8,0.8,1.9,1.2,3.4,1.2c1,0,1.9-0.3,2.7-0.8s1.2-1.1,1.4-1.7h4.5   c-0.7,2.2-1.8,3.8-3.4,4.8c-1.5,1-3.3,1.5-5.5,1.5c-1.5,0-2.8-0.2-4-0.7c-1.2-0.5-2.2-1.2-3-2c-0.8-0.9-1.5-1.9-1.9-3.1   s-0.7-2.5-0.7-4s0.2-2.7,0.7-3.9s1.1-2.3,2-3.2s1.9-1.6,3-2.1c1.2-0.5,2.5-0.8,3.9-0.8c1.6,0,3,0.3,4.2,0.9s2.2,1.5,2.9,2.5   c0.8,1,1.3,2.2,1.7,3.6s0.5,2.7,0.4,4.2L495,631L495,631z M503.5,627.7c-0.2-1.3-0.7-2.3-1.3-3s-1.6-1-2.8-1   c-0.8,0-1.5,0.1-2.1,0.4c-0.5,0.3-1,0.6-1.3,1s-0.6,0.8-0.7,1.3s-0.2,0.9-0.2,1.2L503.5,627.7L503.5,627.7z"/>
	<path class="st0" d="M522.9,623.8h-3.1v-3.5h3.1v-1.5c0-0.8,0.1-1.6,0.4-2.3c0.2-0.7,0.7-1.3,1.2-1.8c0.5-0.5,1.2-0.9,2-1.2   s1.7-0.4,2.8-0.4c0.5,0,0.9,0,1.4,0c0.5,0,0.9,0.1,1.3,0.1v3.9c-0.6-0.1-1.3-0.1-1.9-0.1c-0.7,0-1.2,0.2-1.5,0.5   c-0.3,0.3-0.5,0.9-0.5,1.6v1.1h3.6v3.5h-3.6v15.4h-5.2L522.9,623.8L522.9,623.8z"/>
	<path class="st0" d="M551.6,639.2h-4.9v-2.6h-0.1c-0.7,1.1-1.5,1.9-2.5,2.4s-2.1,0.8-3.2,0.8c-1.4,0-2.5-0.2-3.4-0.6   c-0.9-0.4-1.6-0.9-2.1-1.6s-0.9-1.5-1.1-2.4c-0.2-1-0.3-2-0.3-3.2v-11.6h5.2V631c0,1.5,0.2,2.7,0.8,3.5c0.5,0.8,1.3,1.2,2.6,1.2   c1.4,0,2.4-0.4,3.1-1.3s1-2.2,1-4.1v-9.9h5.2L551.6,639.2L551.6,639.2z"/>
	<path class="st0" d="M562.1,620.3h3.8v3.5h-3.8v9.3c0,0.9,0.2,1.5,0.4,1.8s0.9,0.4,1.8,0.4c0.6,0,1.1,0,1.6-0.2v4   c-0.4,0.1-0.9,0.1-1.5,0.2c-0.5,0-1.1,0-1.6,0c-0.8,0-1.6,0-2.3-0.2c-0.7-0.1-1.3-0.3-1.9-0.7c-0.5-0.3-1-0.8-1.3-1.4   c-0.3-0.6-0.5-1.3-0.5-2.3v-11.1h-3.1v-3.5h3.1v-5.6h5.2L562.1,620.3L562.1,620.3z"/>
	<path class="st0" d="M586,639.2h-4.9v-2.6H581c-0.7,1.1-1.5,1.9-2.5,2.4s-2.1,0.8-3.2,0.8c-1.4,0-2.5-0.2-3.4-0.6   c-0.9-0.4-1.6-0.9-2.1-1.6s-0.9-1.5-1.1-2.4c-0.2-1-0.3-2-0.3-3.2v-11.6h5.2V631c0,1.5,0.2,2.7,0.8,3.5c0.5,0.8,1.3,1.2,2.6,1.2   c1.4,0,2.4-0.4,3.1-1.3s1-2.2,1-4.1v-9.9h5.2L586,639.2L586,639.2z"/>
	<path class="st0" d="M589.9,620.3h4.9v3.5h0.1c0.2-0.6,0.6-1.1,1-1.6s0.9-0.9,1.4-1.3c0.5-0.3,1.1-0.6,1.7-0.8   c0.6-0.2,1.2-0.3,1.9-0.3c0.4,0,0.8,0.1,1.1,0.2v4.8c-0.2,0-0.5-0.1-0.9-0.1s-0.7,0-1,0c-1,0-1.8,0.2-2.4,0.5   c-0.7,0.3-1.2,0.8-1.6,1.3c-0.4,0.5-0.7,1.2-0.9,1.9s-0.2,1.5-0.2,2.3v8.5h-5.2L589.9,620.3L589.9,620.3z"/>
	<path class="st0" d="M607.7,631c0.1,1.7,0.5,2.9,1.3,3.6c0.8,0.8,1.9,1.2,3.3,1.2c1,0,1.9-0.3,2.7-0.8s1.2-1.1,1.4-1.7h4.5   c-0.7,2.2-1.8,3.8-3.3,4.8c-1.5,1-3.3,1.5-5.5,1.5c-1.5,0-2.8-0.2-4-0.7c-1.2-0.5-2.2-1.2-3-2c-0.8-0.9-1.5-1.9-1.9-3.1   c-0.5-1.2-0.7-2.5-0.7-4s0.2-2.7,0.7-3.9s1.1-2.3,2-3.2s1.9-1.6,3-2.1s2.5-0.8,3.9-0.8c1.6,0,3,0.3,4.2,0.9s2.2,1.5,2.9,2.5   s1.3,2.2,1.7,3.6c0.3,1.3,0.5,2.7,0.4,4.2L607.7,631L607.7,631z M616.1,627.7c-0.2-1.3-0.7-2.3-1.3-3s-1.6-1-2.8-1   c-0.8,0-1.5,0.1-2.1,0.4c-0.5,0.3-1,0.6-1.3,1s-0.6,0.8-0.7,1.3s-0.2,0.9-0.2,1.2L616.1,627.7L616.1,627.7z"/>
</g>
<g>
	<path class="st0" d="M654.1,556.7c4.9-4.1,8.1-10.2,8.1-17.1l0,0c0-12.2-9.9-22.2-22.2-22.2h-28.8c-1.2,0-2.2,1-2.2,2.2v33.2   c0,0,0,0,0,0V586c0,1.2,1,2.2,2.2,2.2v0h17.7c1.2,0,2.2-1,2.2-2.2v-6.6c0-1.2-1-2.2-2.2-2.2h-8.8v-15.4c0,0,0,0,0,0h13.3   c0,0,0,0,0,0h6.6c0,0,0,0,0,0c6.1,0,11,5,11,11.1V586c0,1.2,1,2.2,2.2,2.2h6.7c1.2,0,2.2-1,2.2-2.2v-11.8   C662.2,566,659.2,560.4,654.1,556.7L654.1,556.7z M620.1,550.7v-22.2c0,0,0,0,0,0H640c6.1,0,11.1,5,11.1,11.1l0,0   c0,6.1-5,11.1-11.1,11.1h-6.6c-0.2,0-0.4,0-0.6,0.1c-1.3-0.1-2.6-0.1-3.9-0.1H620.1L620.1,550.7z"/>
	<path class="st0" d="M340.5,553.6C340.5,553.6,340.5,553.6,340.5,553.6c0,0.4,0,0.7,0,0.9s0,0.5,0,0.9c0,0,0,0,0,0c0,0.3,0,0.2,0,0   c0,0,0,0,0,0V553.6C340.5,553.6,340.5,553.6,340.5,553.6C340.5,553.4,340.5,553.4,340.5,553.6L340.5,553.6z"/>
	<path class="st0" d="M318.3,520.5h-17.7c0,0-0.1,0-0.1,0c-1.2,0-2.1,1-2.1,2.2l0,0v63.5l0,0c0,1.2,1,2.2,2.1,2.2c0,0,0.1,0,0.1,0   h17.7c18.3,0,33.1-14.8,33.2-33c0,0,0,0,0,0v-1.8c0,0,0,0,0,0C351.4,535.3,336.6,520.5,318.3,520.5L318.3,520.5z M340.5,556.1v10.2   c0,6.1-5,11.1-11.1,11.1h-20v-45.8h20c6.1,0,11.1,5,11.1,11.1v10.5c0,0.1,0,0.2,0,0.3l0,0v1.9l0,0c0,0.1,0,0.2,0,0.3V556.1   L340.5,556.1z"/>
	<path class="st0" d="M417.5,553.6C417.5,553.6,417.5,553.6,417.5,553.6c0,0.4,0,0.7,0,0.9s0,0.5,0,0.9c0,0,0,0,0,0c0,0.3,0,0.2,0,0   c0,0,0,0,0,0c0-0.3,0-0.6,0-0.9S417.5,553.9,417.5,553.6C417.5,553.6,417.5,553.6,417.5,553.6C417.5,553.4,417.5,553.3,417.5,553.6   L417.5,553.6z"/>
	<path class="st0" d="M395.3,520.5c-18.3,0-33.1,14.8-33.2,33c0,0,0,0,0,0v1.8c0,0,0,0,0,0c0.1,18.2,14.9,33,33.2,33   s33.1-14.8,33.2-33c0,0,0,0,0,0v-1.8c0,0,0,0,0,0C428.4,535.3,413.6,520.5,395.3,520.5z M417.5,556.1v10.2c0,6.1-5,11.1-11.1,11.1   h-22.2c-6.1,0-11.1-5-11.1-11.1v-10.9l0,0v-1.9l0,0v-10.9c0-6.1,5-11.1,11.1-11.1h22.2c6.1,0,11.1,5,11.1,11.1v10.9l0,0v1.9l0,0   V556.1L417.5,556.1z"/>
	<path class="st0" d="M373.1,555.4C373.1,555.4,373.1,555.4,373.1,555.4c0-0.4,0-0.7,0-0.9s0-0.5,0-0.9c0,0,0,0,0,0c0-0.3,0-0.2,0,0   c0,0,0,0,0,0c0,0.3,0,0.6,0,0.9S373.1,555.1,373.1,555.4C373.1,555.4,373.1,555.4,373.1,555.4C373.1,555.6,373.1,555.7,373.1,555.4   L373.1,555.4z"/>
	<path class="st0" d="M284.6,517.9h-30c-12.7,0-23.1,10.3-23.1,23v15.9c0,1.3,1,2.3,2.3,2.3h41.5v13.6c0,2.5-2.1,4.6-4.6,4.6h-27.6   c0,0,0,0,0,0v-9.2c0-1.3-1-2.3-2.3-2.3h-6.9c-1.3,0-2.3,1-2.3,2.3v18.4c0,1.3,1,2.3,2.3,2.3h30c12.7,0,23-10.3,23-23V550   c0-1.3-1-2.3-2.3-2.3h-41.5V534c0-2.5,2.1-4.6,4.6-4.6h27.6c0,0,0,0,0,0v9.2c0,1.3,1,2.3,2.3,2.3h6.9c1.3,0,2.3-1,2.3-2.3v-18.4   C286.9,519,285.9,517.9,284.6,517.9L284.6,517.9z"/>
	<path class="st0" d="M722.2,517.4h-18.5c-19.1,0-34.6,15.5-34.6,34.6v34.2c0,1.3,1,2.3,2.3,2.3h6.9c1.3,0,2.3-1,2.3-2.3   c0-5.1,0-9.2,0-9.2v-36.5c0-6.4,5.2-11.5,11.5-11.5h20.8v27.7l0,0v29.5c0,1.3,1,2.3,2.3,2.3h6.9c1.3,0,2.3-1,2.3-2.3v-66.4   C724.5,518.4,723.4,517.4,722.2,517.4L722.2,517.4z"/>
	<path class="st0" d="M704.9,548.7h-16.2c-1.3,0-2.3,1-2.3,2.3v6.9c0,1.3,1,2.3,2.3,2.3h16.1c1.3,0,2.3-1,2.3-2.3l0-6.9   C707.2,549.8,706.2,548.7,704.9,548.7L704.9,548.7z"/>
	<path class="st0" d="M570.9,547.2l0,11.5h18.4c1.3,0,2.3-1,2.3-2.3v-6.9c0-1.3-1-2.3-2.3-2.3L570.9,547.2L570.9,547.2z"/>
	<path class="st0" d="M596.7,517.4h-40.3c-1.3,0-2.3,1-2.3,2.3v66.4c0,1.3,1,2.3,2.3,2.3h6.9c0,0,0,0,0,0h33.3c1.3,0,2.3-1,2.3-2.3   v-6.9c0-1.3-1-2.3-2.3-2.3h-31v-48l0,0h31c1.3,0,2.3-1,2.3-2.3v-6.9C599,518.5,598,517.4,596.7,517.4L596.7,517.4z"/>
	<path class="st0" d="M195.9,517.4H189c-1.3,0-2.3,1-2.3,2.3v29.5l0,0v27.7h-12.4c-6.4,0-11.5-5.2-11.5-11.5v-19.6c0-0.9,0-4.6,0-9   c0-1.3-1-2.3-2.3-2.3h-6.9c-1.3,0-2.3,1-2.3,2.3c0,4.4,0,8.2,0,9v19.6c0,6.4-5.2,11.5-11.5,11.5h-12.4v-27.7l0,0v-29.5   c0-1.3-1-2.3-2.3-2.3h-6.9c-1.3,0-2.3,1-2.3,2.3v66.4c0,1.3,1,2.3,2.3,2.3h10.1c12,0,22.6-6.2,28.8-15.5   c6.2,9.3,16.8,15.5,28.8,15.5h10.1c1.3,0,2.3-1,2.3-2.3v-66.4C198.2,518.4,197.2,517.4,195.9,517.4L195.9,517.4z"/>
	<path class="st0" d="M519.4,517.4h-10.1c-12,0-22.6,6.2-28.8,15.5c-6.2-9.3-16.8-15.5-28.8-15.5h-10.1c-1.3,0-2.3,1-2.3,2.3v66.4   c0,1.3,1,2.3,2.3,2.3h6.9c1.3,0,2.3-1,2.3-2.3v-29.5l0,0v-27.7h12.4c6.4,0,11.5,5.2,11.5,11.5v36.7c0,0.9,0,4.6,0,9   c0,1.3,1,2.3,2.3,2.3h6.9c1.3,0,2.3-1,2.3-2.3c0-4.4,0-8.2,0-9v-36.7c0-6.4,5.2-11.5,11.5-11.5h12.4v27.7l0,0v29.5   c0,1.3,1,2.3,2.3,2.3h6.9c1.3,0,2.3-1,2.3-2.3v-66.4C521.7,518.4,520.6,517.4,519.4,517.4L519.4,517.4z"/>
	<path class="st0" d="M211.6,517.4h6.6c1.2,0,2.2,1,2.2,2.2v66.6c0,1.2-1,2.2-2.2,2.2h-6.6c-1.2,0-2.2-1-2.2-2.2v-66.6   C209.4,518.4,210.4,517.4,211.6,517.4z"/>
</g>
<path class="st1" d="M495.6,322.5c-1.1-0.5-2.2-1-3.3-1.6c-2.1-1.4-6.2-3.4-12-3.6c1.9-1,3.9-2,5.9-2.8l5.7-2.3  c1.5-0.6,2.2-2.2,1.6-3.7l0-0.1c-0.6-1.5-2.3-2.2-3.8-1.6s-3.6,1.5-5.7,2.3c-8.2,3.3-15.6,8.3-21.9,14.6l-0.9,0.9c0,0,0,0,0,0l0,0  c-5.5,5.5-13.6,7.9-21.2,6.1l-4.3-1c-1.3-0.3-1.8-2-0.8-3l7.2-7.2c0,0,0,0,0,0l1.8-1.8c5.1-5.1,10.8-9.3,17-12.8l0,0  c0,0,0.1,0,0.1-0.1c4.4-2.5,9.1-4.4,14-6c2.6-0.8,5.4-0.9,7.9,0c0.8,0.3,1.8,0.4,2.8,0.2c2.3-0.4,4.2-2.2,4.6-4.5  c0.6-3.6-2.1-6.7-5.5-6.7c-1.2,0-2.4,0.4-3.3,1.1c-2.5,1.9-5.2,3.5-8.2,4.4c-1,0.3-2,0.7-3,1c2.6-5.9,2.8-12.7,0.2-18.8  c-0.7-1.6-2.7-2.3-4.2-1.4l0,0c-1.2,0.8-1.7,2.3-1.1,3.6c3.4,8,0.5,17.4-7.1,22c-2.1,1.2-4.1,2.4-6.1,3.8c0.7-2,1.2-4.1,1.5-6.2  l1.2-7.1c1-6.1,3.4-11.9,7-16.9l1.3-1.9c2.1-3,4.8-5.5,7.7-7.7c1.5-1.1,2.3-3.1,1.7-5.3c-0.4-1.5-2-3-3.6-3.4  c-3.2-0.7-5.2,1.8-6,4.8c-1,3.8-4.2,7.7-5.9,10.1c-4.2,5.6-6.8,12.4-8,19.3l-1.2,7.1c-1.2,7.2-4.6,13.8-9.8,19l-6,6l-0.9,0.9  c-1,1-2.7,0.5-3-0.9l-0.5-3c-1.1-6.3,0.2-12.7,3.4-18.2c4.7-8,7.3-17,7.4-26.2l4.4-9.5l4.4-8.6c0.8-1.5,1.9-2.7,3.3-3.6  c1.8-1.1,2.7-3.3,2-5.7c-0.5-1.6-1.8-2.8-3.4-3.3c-3.3-0.9-6.4,1.6-6.4,4.8v0c0,2-0.7,5-1.5,6.8l-3.8,8.1c0-0.3-0.1-0.6-0.1-0.9  l-1.1-5.6c-0.8-4.1-1.3-8.3-0.7-12.4c0.1-0.6,0-1.3-0.1-2c-0.5-1.7-1.8-3.1-3.5-3.5c-3.3-0.8-6.3,1.7-6.3,4.8c0,0.9,0.2,1.7,0.6,2.4  c1.8,3.2,3.2,6.6,4,10.2l1.6,7.7c2.3,11.4,0.5,23.4-5.6,33.3c-4.1,6.7-5.6,14.7-4.3,22.4l1.7,9.4c0.1,0.6-0.1,1.1-0.5,1.5l-0.8,0.8  c-0.7,0.7-1.8,0.7-2.5,0l-4.3-4.3c-0.4-0.4-0.6-1-0.5-1.6l1.1-5.6c1.5-7.1,1.6-14.3,0.7-21.3c6.9-9.7,9.2-21.8,6.4-33.2  c-0.5-2.1-0.6-4.3-0.6-6.5c0-0.5-0.1-1-0.2-1.5c-0.5-1.6-1.8-2.8-3.5-3.2c-3.1-0.7-5.9,1.7-5.9,4.7c0,1.1,0.4,2.1,1,3  c2.4,3.1,4.2,6.7,4.5,10.6c0.4,5.3-0.4,10.7-2.4,15.7c-0.3,0.8-1.4,0.7-1.6,0c-1.8-5.6-4.3-10.9-7.6-15.9v-16c0-3.3,0.5-6.5,1.7-9.6  c0.4-1,0.5-2.1,0.2-3.3c-0.5-1.7-1.7-2.9-3.4-3.4c-3.4-0.9-6.4,1.6-6.4,4.8c0,0.6,0.1,1.1,0.3,1.6c1.1,3.2,1.8,6.5,1.8,9.8v8.3  l-7.9-9.8c-1-1.2-1.5-2.7-1.8-4.3c-0.2-0.9-0.7-2-2-3.2c-0.7-0.6-1.5-1-2.4-1.1c-2.9-0.3-5.4,2-5.4,4.9c0,2,1.1,3.6,2.8,4.4  s3.2,1.9,4.4,3.3l10.2,12.4c10.7,13.3,14.9,30.7,11.5,47.5l0,0c-0.2,1.2-1.7,1.6-2.6,0.8l-5.6-5.6c0,0,0,0-0.1-0.1l-7.1-7.1  c-6.9-6.9-8.1-12.3-9.7-19.8c-0.9-4.1-1.9-8.8-4-14.3l-1-3.2c-1-3.3-1.7-6.7-1.4-10.1c0-0.6,0-1.2-0.2-1.9c-0.5-1.6-1.8-2.8-3.4-3.2  c-3.2-0.8-6.1,1.6-6.1,4.7c0,1.1,0.4,2,0.9,2.9c1.9,2.6,3.5,5.3,4.4,8.3l1.4,4.3c1.9,4.9,2.8,9.1,3.6,12.9  c-7.5-5.3-14.7-6.5-25.1-3.9c-0.5,0.1-2,0.5-2,0.5c-2.3,0-4.1,2.1-3.6,4.5c0.3,1.4,1.4,2.5,2.8,2.8c1.3,0.3,2.5-0.1,3.3-0.8  c1.3-1.1,2.9-1.9,4.5-2.1c9.7-1.6,19.7,3.3,24.2,12.6c-7.8-3.7-16.3-5.8-25-6.1c-1.4-0.1-2.7-0.3-4.1-0.6c-0.6-0.1-1.3-0.1-2,0  c-1.2,0.3-2.6,1.6-2.9,2.9c-0.8,2.8,1.3,5.4,4,5.4c0.6,0,1.2-0.1,1.7-0.4c2-0.9,4.2-1.4,6.4-1.2c13.6,1.4,26.5,7.3,36.2,17l9.2,9.2  c1,1,0.5,2.6-0.8,3l-5.5,1.3c-7.7,1.8-15.9-0.5-21.5-6.2l0,0c0,0,0,0,0,0l-0.9-0.9c-6.3-6.4-13.8-11.4-22.1-14.8l-0.6-0.2  c-2.4-1-4.5-2.3-6.5-3.8c-0.9-0.6-2-1-3.2-0.7c-1.4,0.3-2.9,1.7-3.2,3.2c-0.5,2.6,1.5,4.9,4,4.9c0,0,0.1,0,0.2,0  c2.2,0.1,4.4,0.7,6.4,1.7l0.7,0.3c2.1,0.9,4.2,1.9,6.2,2.9c-4.5,0.2-17.3,2.1-17.9,8.7c-0.2,2,1.1,3.9,3.1,4.4s3.8-0.6,4.6-2.2  c0.8-1.5,2.1-2.7,3.7-3.4c7-3.2,15.6-1.9,21.4,4l0,0l0,0c5.4,5.5,12.9,8.5,20.4,8.5c2.2,0,4.4-0.2,6.5-0.8l11-2.6  c0.6-0.1,1.2,0,1.6,0.5l0.5,0.5c0.8,0.8,0.7,2-0.2,2.6l-7.5,5.7c-6.1,4.6-13.9,6.2-21.3,4.4l-0.2-0.1c-6.9-1.7-13.9-2.6-21-2.6  h-12.4c-1.4,0-2.9-0.2-4.2-0.8c-0.8-0.3-1.7-0.4-2.6-0.2c-1.2,0.3-2.5,1.6-2.9,2.8c-0.8,2.8,1.3,5.2,3.9,5.2c0.6,0,1.2-0.1,1.7-0.4  c1.4-0.6,2.8-0.9,4.3-0.9h12.2c0,0,0,0,0,0.1c-0.9,0.4-1.7,0.9-2.5,1.4c-5.9,3.7-10.5,9-13.2,15.2c-0.6,1.5-1.4,2.9-2.4,4.1  c-0.8,0.9-1.1,2.2-0.8,3.6s1.4,2.5,2.8,2.9c2.8,0.8,5.3-1.3,5.3-3.9v-0.4c0-1.7,0.6-4.4,1.4-5.9c2.3-4.3,5.7-7.9,10-10.6  c6.1-3.8,13.3-5.1,20.3-3.8c0.8,0.1,1.6,0.3,2.4,0.4c1.2,0.1,3,0.3,4.1,0.3c0.3,0,0.6,0,0.9,0c1.4,12.9,11.7,23.2,24.6,24.5v53.1  c0,1.6,1.3,2.9,2.9,2.9l0,0c1.6,0,2.9-1.3,2.9-2.9v-85.7c0-1.5,1.7-2.3,2.8-1.4l4.2,3.2c5.4,4.1,12.1,6.3,18.8,6.3  c1.7,0,3.4-0.1,5.1-0.4h0.4l0.2-0.1c0.3-0.1,0.6-0.1,0.9-0.2h0.1c10.8-1.9,22.9,1.2,26.9,11.2c0.2,0.4,0.3,1.7,0.3,1.7  c0,2.6,2.5,4.7,5.2,3.9c1.4-0.4,2.5-1.5,2.8-2.9c0.4-1.6-0.1-3.1-1.2-4c-1.4-1.2-2.7-2.5-3.9-3.9c-2.8-3.4-6.1-6.1-9.9-8.2l0.1-0.3  h6c1.5,0,2.9,0.2,4.2,0.8c0.8,0.4,1.7,0.5,2.7,0.2c1.4-0.3,2.5-1.4,2.9-2.8c0.8-2.8-1.3-5.3-3.9-5.3c-0.5,0-1,0.1-1.4,0.2  c-1.5,0.5-3,0.9-4.6,0.9H477c-7,0-14.1,0.9-21,2.5l-0.8,0.2c-0.3,0.1-0.6,0.1-0.9,0.2H454l-0.2,0.1c-6.8,1.1-13.8-0.6-19.3-4.8  l-7.5-5.6c-0.9-0.6-0.9-1.9-0.2-2.6l0.4-0.4c0.4-0.4,1-0.6,1.6-0.5l9.9,2.4c2.1,0.5,4.3,0.8,6.5,0.8c7.5,0,14.8-3,20.2-8.4l0,0l0,0  c5.2-5.3,12.8-6.9,19.4-4.7c2.5,0.8,4.5,2.6,6,4.7c0.8,1.2,2.3,1.9,3.9,1.7c1.5-0.2,3.1-1.7,3.4-3.1  C498.5,325.2,497.3,323.3,495.6,322.5L495.6,322.5z M399.5,354.8c-0.2-0.9,0.4-1.8,1.3-2c3.8-1,7.3-2.8,10.5-5.2l4-3.1  c1.1-0.9,2.8,0,2.8,1.4v24.5c0,1.1-1.1,2-2.2,1.7C407.6,370.2,401,363.4,399.5,354.8L399.5,354.8z"/>
<circle class="st1" cx="449.8" cy="373.5" r="5.4"/>
<g>
	<path class="st2" d="M396.2,194.4v38.9c-35.3,10.3-61.2,43-61.2,81.7v42.5c0,23.6,19.1,42.7,42.7,42.7h16.7c1,0,1.8,0.8,1.8,1.8   v29.7c0,1-0.8,1.8-1.8,1.8h-29.6c-6.5,0-12.8-2.6-17.5-7.2l-14-13.9c-5-5-7.8-11.8-7.8-18.8V387l-11.9-11.9   c-6.1-6.1-9.6-14.5-9.6-23.2v-52c0-8.7,3.4-17,9.6-23.1l7.4-7.4v-28.6c0-3.5,1.4-6.8,3.8-9.2l6.2-6.2l3.3-3.3   c2.5-2.5,5.5-4.5,8.8-5.9c3.2-1.4,6.8-2.1,10.4-2.1l12.3-12.3c4.7-4.7,11-7.3,17.7-7.3L396.2,194.4L396.2,194.4z"/>
	<path class="st2" d="M536.2,299.9v52c0,8.7-3.5,17-9.6,23.2L514.7,387v6.3c0,7.1-2.8,13.8-7.8,18.8l-14,13.9   c-4.6,4.6-10.9,7.2-17.5,7.2H446c-1,0-1.8-0.8-1.8-1.8v-29.7c0-1,0.8-1.8,1.8-1.8h16.6c23.6,0,42.7-19.1,42.7-42.7V315   c0-38.6-25.7-71.3-61-81.7v-38.9h12.5c6.6,0,13,2.6,17.7,7.3l12.3,12.3c3.6,0,7.1,0.7,10.4,2.1c3.2,1.4,6.2,3.3,8.8,5.9l3.3,3.3   l6.2,6.2c2.4,2.4,3.8,5.8,3.8,9.2v28.6l7.4,7.4C532.7,282.9,536.2,291.2,536.2,299.9L536.2,299.9z"/>
</g>
</svg>