<svg xmlns="http://www.w3.org/2000/svg" xmlns:xlink="http://www.w3.org/1999/xlink" width="840" zoomAndPan="magnify" viewBox="0 0 630 629.999998" height="840" preserveAspectRatio="xMidYMid meet" version="1.0"><path fill="#ffffff" d="M 371.699219 326.683594 C 370.875 326.308594 370.050781 325.933594 369.226562 325.484375 C 367.648438 324.433594 364.574219 322.933594 360.226562 322.78125 C 361.648438 322.03125 363.148438 321.28125 364.648438 320.683594 L 368.925781 318.957031 C 370.050781 318.507812 370.574219 317.308594 370.125 316.183594 L 370.125 316.109375 C 369.675781 314.984375 368.398438 314.457031 367.273438 314.90625 C 366.148438 315.359375 364.574219 316.03125 363 316.632812 C 356.851562 319.109375 351.300781 322.859375 346.574219 327.582031 L 345.898438 328.257812 C 341.773438 332.382812 335.699219 334.183594 330 332.832031 L 326.773438 332.082031 C 325.800781 331.859375 325.425781 330.582031 326.175781 329.832031 L 332.925781 323.082031 C 336.75 319.257812 341.023438 316.109375 345.675781 313.484375 C 345.675781 313.484375 345.75 313.484375 345.75 313.40625 C 349.050781 311.53125 352.574219 310.109375 356.25 308.90625 C 358.199219 308.308594 360.300781 308.234375 362.175781 308.90625 C 362.773438 309.132812 363.523438 309.207031 364.273438 309.058594 C 366 308.757812 367.425781 307.40625 367.726562 305.683594 C 368.175781 302.984375 366.148438 300.65625 363.601562 300.65625 C 362.699219 300.65625 361.800781 300.957031 361.125 301.484375 C 359.25 302.90625 357.226562 304.109375 354.976562 304.78125 C 354.226562 305.007812 353.476562 305.308594 352.726562 305.53125 C 354.675781 301.109375 354.824219 296.007812 352.875 291.433594 C 352.351562 290.234375 350.851562 289.707031 349.726562 290.382812 C 348.824219 290.984375 348.449219 292.109375 348.898438 293.082031 C 351.449219 299.082031 349.273438 306.132812 343.574219 309.582031 C 342 310.484375 340.5 311.382812 339 312.433594 C 339.523438 310.933594 339.898438 309.359375 340.125 307.78125 L 341.023438 302.457031 C 341.773438 297.882812 343.574219 293.53125 346.273438 289.78125 L 347.25 288.359375 C 348.824219 286.109375 350.851562 284.234375 353.023438 282.582031 C 354.148438 281.757812 354.75 280.257812 354.300781 278.609375 C 354 277.484375 352.800781 276.359375 351.601562 276.058594 C 349.199219 275.53125 347.699219 277.40625 347.101562 279.65625 C 346.351562 282.507812 343.949219 285.433594 342.675781 287.234375 C 339.523438 291.433594 337.574219 296.53125 336.675781 301.707031 L 335.773438 307.03125 C 334.875 312.433594 332.324219 317.382812 328.425781 321.28125 L 323.25 326.457031 C 322.5 327.207031 321.226562 326.832031 321 325.78125 L 320.625 323.53125 C 319.800781 318.808594 320.773438 314.007812 323.175781 309.882812 C 326.699219 303.882812 328.648438 297.132812 328.726562 290.234375 L 332.023438 283.109375 L 335.324219 276.65625 C 335.925781 275.53125 336.75 274.632812 337.800781 273.957031 C 339.148438 273.132812 339.824219 271.484375 339.300781 269.683594 C 338.925781 268.484375 337.949219 267.582031 336.75 267.207031 C 334.273438 266.53125 331.949219 268.40625 331.949219 270.808594 C 331.949219 272.308594 331.425781 274.558594 330.824219 275.90625 L 327.976562 281.984375 C 327.976562 281.757812 327.898438 281.53125 327.898438 281.308594 L 327.074219 277.109375 C 326.476562 274.03125 326.101562 270.882812 326.550781 267.808594 C 326.625 267.359375 326.550781 266.832031 326.476562 266.308594 C 326.101562 265.03125 325.125 263.984375 323.851562 263.683594 C 321.375 263.082031 319.125 264.957031 319.125 267.28125 C 319.125 267.957031 319.273438 268.558594 319.574219 269.082031 C 320.925781 271.484375 321.976562 274.03125 322.574219 276.734375 L 323.773438 282.507812 C 325.5 291.058594 324.148438 300.058594 319.574219 307.484375 C 316.5 312.507812 315.375 318.507812 316.351562 324.28125 L 317.625 331.332031 C 317.699219 331.78125 317.550781 332.15625 317.25 332.457031 L 316.648438 333.058594 C 316.125 333.582031 315.300781 333.582031 314.773438 333.058594 L 311.550781 329.832031 C 311.25 329.53125 311.101562 329.082031 311.175781 328.632812 L 312 324.433594 C 313.125 319.109375 313.199219 313.707031 312.523438 308.457031 C 317.699219 301.183594 319.425781 292.109375 317.324219 283.558594 C 316.949219 281.984375 316.875 280.332031 316.875 278.683594 C 316.875 278.308594 316.800781 277.933594 316.726562 277.558594 C 316.351562 276.359375 315.375 275.457031 314.101562 275.15625 C 311.773438 274.632812 309.675781 276.433594 309.675781 278.683594 C 309.675781 279.507812 309.976562 280.257812 310.425781 280.933594 C 312.226562 283.257812 313.574219 285.957031 313.800781 288.882812 C 314.101562 292.859375 313.5 296.90625 312 300.65625 C 311.773438 301.257812 310.949219 301.183594 310.800781 300.65625 C 309.449219 296.457031 307.574219 292.484375 305.101562 288.734375 L 305.101562 276.734375 C 305.101562 274.257812 305.476562 271.859375 306.375 269.53125 C 306.675781 268.78125 306.75 267.957031 306.523438 267.058594 C 306.148438 265.78125 305.25 264.882812 303.976562 264.507812 C 301.425781 263.832031 299.175781 265.707031 299.175781 268.109375 C 299.175781 268.558594 299.25 268.933594 299.398438 269.308594 C 300.226562 271.707031 300.75 274.183594 300.75 276.65625 L 300.75 282.882812 L 294.824219 275.53125 C 294.074219 274.632812 293.699219 273.507812 293.476562 272.308594 C 293.324219 271.632812 292.949219 270.808594 291.976562 269.90625 C 291.449219 269.457031 290.851562 269.15625 290.175781 269.082031 C 288 268.859375 286.125 270.582031 286.125 272.757812 C 286.125 274.257812 286.949219 275.457031 288.226562 276.058594 C 289.5 276.65625 290.625 277.484375 291.523438 278.53125 L 299.175781 287.832031 C 307.199219 297.808594 310.351562 310.859375 307.800781 323.457031 C 307.648438 324.359375 306.523438 324.65625 305.851562 324.058594 L 301.648438 319.859375 C 301.648438 319.859375 301.648438 319.859375 301.574219 319.78125 L 296.25 314.457031 C 291.074219 309.28125 290.175781 305.234375 288.976562 299.609375 C 288.300781 296.53125 287.550781 293.007812 285.976562 288.882812 L 285.226562 286.484375 C 284.476562 284.007812 283.949219 281.457031 284.175781 278.90625 C 284.175781 278.457031 284.175781 278.007812 284.023438 277.484375 C 283.648438 276.28125 282.675781 275.382812 281.476562 275.082031 C 279.074219 274.484375 276.898438 276.28125 276.898438 278.609375 C 276.898438 279.433594 277.199219 280.109375 277.574219 280.78125 C 279 282.734375 280.199219 284.757812 280.875 287.007812 L 281.925781 290.234375 C 283.351562 293.90625 284.023438 297.058594 284.625 299.90625 C 279 295.933594 273.601562 295.03125 265.800781 296.984375 C 265.425781 297.058594 264.300781 297.359375 264.300781 297.359375 C 262.574219 297.359375 261.226562 298.933594 261.601562 300.734375 C 261.824219 301.78125 262.648438 302.609375 263.699219 302.832031 C 264.675781 303.058594 265.574219 302.757812 266.175781 302.234375 C 267.148438 301.40625 268.351562 300.808594 269.550781 300.65625 C 276.824219 299.457031 284.324219 303.132812 287.699219 310.109375 C 281.851562 307.332031 275.476562 305.757812 268.949219 305.53125 C 267.898438 305.457031 266.925781 305.308594 265.875 305.082031 C 265.425781 305.007812 264.898438 305.007812 264.375 305.082031 C 263.476562 305.308594 262.425781 306.28125 262.199219 307.257812 C 261.601562 309.359375 263.175781 311.308594 265.199219 311.308594 C 265.648438 311.308594 266.101562 311.234375 266.476562 311.007812 C 267.976562 310.332031 269.625 309.957031 271.273438 310.109375 C 281.476562 311.15625 291.148438 315.582031 298.425781 322.859375 L 305.324219 329.757812 C 306.074219 330.507812 305.699219 331.707031 304.726562 332.007812 L 300.601562 332.984375 C 294.824219 334.332031 288.675781 332.609375 284.476562 328.332031 L 283.800781 327.65625 C 279.074219 322.859375 273.449219 319.109375 267.226562 316.558594 L 266.773438 316.40625 C 264.976562 315.65625 263.398438 314.683594 261.898438 313.558594 C 261.226562 313.109375 260.398438 312.808594 259.5 313.03125 C 258.449219 313.257812 257.324219 314.308594 257.101562 315.433594 C 256.726562 317.382812 258.226562 319.109375 260.101562 319.109375 C 260.101562 319.109375 260.175781 319.109375 260.25 319.109375 C 261.898438 319.183594 263.550781 319.632812 265.050781 320.382812 L 265.574219 320.609375 C 267.148438 321.28125 268.726562 322.03125 270.226562 322.78125 C 266.851562 322.933594 257.25 324.359375 256.800781 329.308594 C 256.648438 330.808594 257.625 332.234375 259.125 332.609375 C 260.625 332.984375 261.976562 332.15625 262.574219 330.957031 C 263.175781 329.832031 264.148438 328.933594 265.351562 328.40625 C 270.601562 326.007812 277.050781 326.984375 281.398438 331.40625 C 285.449219 335.53125 291.074219 337.78125 296.699219 337.78125 C 298.351562 337.78125 300 337.632812 301.574219 337.183594 L 309.824219 335.234375 C 310.273438 335.15625 310.726562 335.234375 311.023438 335.609375 L 311.398438 335.984375 C 312 336.582031 311.925781 337.484375 311.25 337.933594 L 305.625 342.207031 C 301.050781 345.65625 295.199219 346.859375 289.648438 345.507812 L 289.5 345.433594 C 284.324219 344.15625 279.074219 343.484375 273.75 343.484375 L 264.449219 343.484375 C 263.398438 343.484375 262.273438 343.332031 261.300781 342.882812 C 260.699219 342.65625 260.023438 342.582031 259.351562 342.734375 C 258.449219 342.957031 257.476562 343.933594 257.175781 344.832031 C 256.574219 346.933594 258.148438 348.734375 260.101562 348.734375 C 260.550781 348.734375 261 348.65625 261.375 348.433594 C 262.425781 347.984375 263.476562 347.757812 264.601562 347.757812 L 273.75 347.757812 C 273.75 347.757812 273.75 347.757812 273.75 347.832031 C 273.074219 348.132812 272.476562 348.507812 271.875 348.882812 C 267.449219 351.65625 264 355.632812 261.976562 360.28125 C 261.523438 361.40625 260.925781 362.457031 260.175781 363.359375 C 259.574219 364.03125 259.351562 365.007812 259.574219 366.058594 C 259.800781 367.109375 260.625 367.933594 261.675781 368.234375 C 263.773438 368.832031 265.648438 367.257812 265.648438 365.308594 L 265.648438 365.007812 C 265.648438 363.734375 266.101562 361.707031 266.699219 360.582031 C 268.425781 357.359375 270.976562 354.65625 274.199219 352.632812 C 278.773438 349.78125 284.175781 348.808594 289.425781 349.78125 C 290.023438 349.859375 290.625 350.007812 291.226562 350.082031 C 292.125 350.15625 293.476562 350.308594 294.300781 350.308594 C 294.523438 350.308594 294.75 350.308594 294.976562 350.308594 C 296.023438 359.984375 303.75 367.707031 313.425781 368.683594 L 313.425781 408.507812 C 313.425781 409.707031 314.398438 410.683594 315.601562 410.683594 C 316.800781 410.683594 317.773438 409.707031 317.773438 408.507812 L 317.773438 344.234375 C 317.773438 343.109375 319.050781 342.507812 319.875 343.183594 L 323.023438 345.582031 C 327.074219 348.65625 332.101562 350.308594 337.125 350.308594 C 338.398438 350.308594 339.675781 350.234375 340.949219 350.007812 L 341.25 350.007812 L 341.398438 349.933594 C 341.625 349.859375 341.851562 349.859375 342.074219 349.78125 L 342.148438 349.78125 C 350.25 348.359375 359.324219 350.683594 362.324219 358.183594 C 362.476562 358.484375 362.550781 359.457031 362.550781 359.457031 C 362.550781 361.40625 364.425781 362.984375 366.449219 362.382812 C 367.5 362.082031 368.324219 361.257812 368.550781 360.207031 C 368.851562 359.007812 368.476562 357.882812 367.648438 357.207031 C 366.601562 356.308594 365.625 355.332031 364.726562 354.28125 C 362.625 351.734375 360.148438 349.707031 357.300781 348.132812 L 357.375 347.90625 L 361.875 347.90625 C 363 347.90625 364.050781 348.058594 365.023438 348.507812 C 365.625 348.808594 366.300781 348.882812 367.050781 348.65625 C 368.101562 348.433594 368.925781 347.609375 369.226562 346.558594 C 369.824219 344.457031 368.25 342.582031 366.300781 342.582031 C 365.925781 342.582031 365.550781 342.65625 365.25 342.734375 C 364.125 343.109375 363 343.40625 361.800781 343.40625 L 357.75 343.40625 C 352.5 343.40625 347.175781 344.082031 342 345.28125 L 341.398438 345.433594 C 341.175781 345.507812 340.949219 345.507812 340.726562 345.582031 L 340.5 345.582031 L 340.351562 345.65625 C 335.25 346.484375 330 345.207031 325.875 342.058594 L 320.25 337.859375 C 319.574219 337.40625 319.574219 336.433594 320.101562 335.90625 L 320.398438 335.609375 C 320.699219 335.308594 321.148438 335.15625 321.601562 335.234375 L 329.023438 337.03125 C 330.601562 337.40625 332.25 337.632812 333.898438 337.632812 C 339.523438 337.632812 345 335.382812 349.050781 331.332031 C 352.949219 327.359375 358.648438 326.15625 363.601562 327.808594 C 365.476562 328.40625 366.976562 329.757812 368.101562 331.332031 C 368.699219 332.234375 369.824219 332.757812 371.023438 332.609375 C 372.148438 332.457031 373.351562 331.332031 373.574219 330.28125 C 373.875 328.707031 372.976562 327.28125 371.699219 326.683594 Z M 299.625 350.90625 C 299.476562 350.234375 299.925781 349.558594 300.601562 349.40625 C 303.449219 348.65625 306.074219 347.308594 308.476562 345.507812 L 311.476562 343.183594 C 312.300781 342.507812 313.574219 343.183594 313.574219 344.234375 L 313.574219 362.609375 C 313.574219 363.433594 312.75 364.109375 311.925781 363.882812 C 305.699219 362.457031 300.75 357.359375 299.625 350.90625 Z M 299.625 350.90625 " fill-opacity="1" fill-rule="nonzero"/><path fill="#ffffff" d="M 341.398438 364.933594 C 341.398438 365.199219 341.375 365.460938 341.320312 365.722656 C 341.269531 365.984375 341.195312 366.238281 341.089844 366.484375 C 340.988281 366.726562 340.863281 366.960938 340.71875 367.183594 C 340.570312 367.402344 340.402344 367.609375 340.214844 367.796875 C 340.027344 367.984375 339.820312 368.152344 339.601562 368.300781 C 339.378906 368.449219 339.144531 368.574219 338.898438 368.675781 C 338.652344 368.777344 338.402344 368.851562 338.140625 368.90625 C 337.878906 368.957031 337.617188 368.984375 337.351562 368.984375 C 337.085938 368.984375 336.820312 368.957031 336.558594 368.90625 C 336.300781 368.851562 336.046875 368.777344 335.800781 368.675781 C 335.554688 368.574219 335.320312 368.449219 335.101562 368.300781 C 334.878906 368.152344 334.675781 367.984375 334.484375 367.796875 C 334.296875 367.609375 334.128906 367.402344 333.984375 367.183594 C 333.835938 366.960938 333.710938 366.726562 333.609375 366.484375 C 333.507812 366.238281 333.429688 365.984375 333.378906 365.722656 C 333.324219 365.460938 333.300781 365.199219 333.300781 364.933594 C 333.300781 364.667969 333.324219 364.402344 333.378906 364.140625 C 333.429688 363.882812 333.507812 363.628906 333.609375 363.382812 C 333.710938 363.136719 333.835938 362.902344 333.984375 362.683594 C 334.128906 362.460938 334.296875 362.257812 334.484375 362.070312 C 334.675781 361.882812 334.878906 361.714844 335.101562 361.566406 C 335.320312 361.417969 335.554688 361.292969 335.800781 361.191406 C 336.046875 361.089844 336.300781 361.011719 336.558594 360.960938 C 336.820312 360.910156 337.085938 360.882812 337.351562 360.882812 C 337.617188 360.882812 337.878906 360.910156 338.140625 360.960938 C 338.402344 361.011719 338.652344 361.089844 338.898438 361.191406 C 339.144531 361.292969 339.378906 361.417969 339.601562 361.566406 C 339.820312 361.714844 340.027344 361.882812 340.214844 362.070312 C 340.402344 362.257812 340.570312 362.460938 340.71875 362.683594 C 340.863281 362.902344 340.988281 363.136719 341.089844 363.382812 C 341.195312 363.628906 341.269531 363.882812 341.320312 364.144531 C 341.375 364.402344 341.398438 364.667969 341.398438 364.933594 Z M 341.398438 364.933594 " fill-opacity="1" fill-rule="nonzero"/><path fill="#68c5b2" d="M 297.148438 230.609375 L 297.148438 259.78125 C 270.675781 267.507812 251.25 292.03125 251.25 321.058594 L 251.25 352.933594 C 251.25 370.632812 265.574219 384.957031 283.273438 384.957031 L 295.800781 384.957031 C 296.550781 384.957031 297.148438 385.558594 297.148438 386.308594 L 297.148438 408.582031 C 297.148438 409.332031 296.550781 409.933594 295.800781 409.933594 L 273.601562 409.933594 C 268.726562 409.933594 264 407.984375 260.476562 404.53125 L 249.976562 394.109375 C 246.226562 390.359375 244.125 385.257812 244.125 380.007812 L 244.125 375.058594 L 235.199219 366.132812 C 230.625 361.558594 228 355.257812 228 348.734375 L 228 309.734375 C 228 303.207031 230.550781 296.984375 235.199219 292.40625 L 240.75 286.859375 L 240.75 265.40625 C 240.75 262.78125 241.800781 260.308594 243.601562 258.507812 L 250.726562 251.382812 C 252.601562 249.507812 254.851562 248.007812 257.324219 246.957031 C 259.726562 245.90625 262.425781 245.382812 265.125 245.382812 L 274.351562 236.15625 C 277.875 232.632812 282.601562 230.683594 287.625 230.683594 Z M 297.148438 230.609375 " fill-opacity="1" fill-rule="nonzero"/><path fill="#68c5b2" d="M 402.148438 309.734375 L 402.148438 348.734375 C 402.148438 355.257812 399.523438 361.484375 394.949219 366.132812 L 386.023438 375.058594 L 386.023438 379.78125 C 386.023438 385.109375 383.925781 390.132812 380.175781 393.882812 L 369.675781 404.308594 C 366.226562 407.757812 361.5 409.707031 356.550781 409.707031 L 334.5 409.707031 C 333.75 409.707031 333.148438 409.109375 333.148438 408.359375 L 333.148438 386.082031 C 333.148438 385.332031 333.75 384.734375 334.5 384.734375 L 346.949219 384.734375 C 364.648438 384.734375 378.976562 370.40625 378.976562 352.707031 L 378.976562 321.058594 C 378.976562 292.109375 359.699219 267.582031 333.226562 259.78125 L 333.226562 230.609375 L 342.601562 230.609375 C 347.550781 230.609375 352.351562 232.558594 355.875 236.082031 L 365.101562 245.308594 C 367.800781 245.308594 370.425781 245.832031 372.898438 246.882812 C 375.300781 247.933594 377.550781 249.359375 379.5 251.308594 L 381.976562 253.78125 L 386.625 258.433594 C 388.425781 260.234375 389.476562 262.78125 389.476562 265.332031 L 389.476562 286.78125 L 395.023438 292.332031 C 399.523438 296.984375 402.148438 303.207031 402.148438 309.734375 Z M 402.148438 309.734375 " fill-opacity="1" fill-rule="nonzero"/></svg>