<svg xmlns="http://www.w3.org/2000/svg" xmlns:xlink="http://www.w3.org/1999/xlink" width="840" zoomAndPan="magnify" viewBox="0 0 630 629.999998" height="840" preserveAspectRatio="xMidYMid meet" version="1.0"><path fill="#ffffff" d="M 465.027344 332.246094 C 462.84375 331.253906 460.664062 330.261719 458.480469 329.070312 C 454.3125 326.292969 446.175781 322.324219 434.664062 321.925781 C 438.4375 319.941406 442.40625 317.957031 446.375 316.371094 L 457.6875 311.804688 C 460.664062 310.617188 462.050781 307.441406 460.859375 304.464844 L 460.859375 304.265625 C 459.671875 301.289062 456.296875 299.898438 453.320312 301.089844 C 450.34375 302.28125 446.175781 304.066406 442.007812 305.652344 C 425.734375 312.203125 411.050781 322.125 398.546875 334.628906 L 396.761719 336.414062 C 385.84375 347.328125 369.769531 352.09375 354.6875 348.519531 L 346.15625 346.535156 C 343.574219 345.941406 342.582031 342.566406 344.566406 340.582031 L 358.855469 326.292969 L 362.429688 322.722656 C 372.550781 312.601562 383.859375 304.265625 396.164062 297.320312 C 396.164062 297.320312 396.363281 297.320312 396.363281 297.121094 C 405.09375 292.160156 414.421875 288.386719 424.148438 285.214844 C 429.308594 283.625 434.863281 283.425781 439.824219 285.214844 C 441.414062 285.808594 443.398438 286.007812 445.382812 285.609375 C 449.945312 284.816406 453.71875 281.242188 454.511719 276.679688 C 455.703125 269.535156 450.34375 263.382812 443.59375 263.382812 C 441.214844 263.382812 438.832031 264.175781 437.046875 265.566406 C 432.085938 269.335938 426.726562 272.511719 420.773438 274.296875 C 418.789062 274.894531 416.804688 275.6875 414.820312 276.28125 C 419.980469 264.574219 420.375 251.078125 415.214844 238.972656 C 413.828125 235.796875 409.859375 234.410156 406.882812 236.195312 C 404.5 237.78125 403.507812 240.757812 404.699219 243.339844 C 411.445312 259.214844 405.691406 277.871094 390.609375 287 C 386.441406 289.378906 382.472656 291.761719 378.503906 294.539062 C 379.890625 290.570312 380.882812 286.402344 381.480469 282.234375 L 383.859375 268.144531 C 385.84375 256.039062 390.609375 244.53125 397.753906 234.605469 L 400.332031 230.835938 C 404.5 224.882812 409.859375 219.921875 415.613281 215.554688 C 418.589844 213.371094 420.179688 209.402344 418.988281 205.039062 C 418.195312 202.0625 415.019531 199.082031 411.84375 198.289062 C 405.492188 196.902344 401.523438 201.863281 399.9375 207.816406 C 397.953125 215.355469 391.601562 223.097656 388.226562 227.859375 C 379.890625 238.972656 374.730469 252.46875 372.351562 266.160156 L 369.96875 280.25 C 367.585938 294.539062 360.839844 307.636719 350.519531 317.957031 L 338.613281 329.867188 L 336.828125 331.652344 C 334.84375 333.636719 331.46875 332.644531 330.875 329.867188 L 329.882812 323.910156 C 327.699219 311.410156 330.277344 298.707031 336.628906 287.792969 C 345.957031 271.917969 351.117188 254.054688 351.3125 235.796875 L 360.046875 216.945312 L 368.777344 199.878906 C 370.367188 196.902344 372.550781 194.519531 375.328125 192.734375 C 378.898438 190.550781 380.6875 186.183594 379.296875 181.421875 C 378.304688 178.246094 375.722656 175.863281 372.550781 174.871094 C 366 173.085938 359.847656 178.046875 359.847656 184.398438 C 359.847656 188.367188 358.457031 194.320312 356.871094 197.894531 L 349.328125 213.96875 C 349.328125 213.371094 349.132812 212.777344 349.132812 212.183594 L 346.949219 201.070312 C 345.359375 192.933594 344.367188 184.597656 345.558594 176.460938 C 345.757812 175.269531 345.558594 173.878906 345.359375 172.492188 C 344.367188 169.117188 341.789062 166.339844 338.414062 165.546875 C 331.867188 163.957031 325.914062 168.917969 325.914062 175.070312 C 325.914062 176.855469 326.308594 178.445312 327.101562 179.832031 C 330.675781 186.183594 333.453125 192.933594 335.042969 200.074219 L 338.214844 215.355469 C 342.78125 237.980469 339.207031 261.796875 327.101562 281.441406 C 318.964844 294.738281 315.988281 310.613281 318.570312 325.894531 L 321.941406 344.550781 C 322.140625 345.742188 321.746094 346.734375 320.949219 347.527344 L 319.363281 349.113281 C 317.972656 350.503906 315.792969 350.503906 314.402344 349.113281 L 305.867188 340.582031 C 305.074219 339.789062 304.679688 338.597656 304.875 337.40625 L 307.058594 326.292969 C 310.035156 312.203125 310.234375 297.914062 308.449219 284.023438 C 322.140625 264.773438 326.707031 240.757812 321.148438 218.136719 C 320.15625 213.96875 319.957031 209.601562 319.957031 205.234375 C 319.957031 204.242188 319.761719 203.25 319.5625 202.257812 C 318.570312 199.082031 315.988281 196.703125 312.617188 195.910156 C 306.464844 194.519531 300.90625 199.28125 300.90625 205.234375 C 300.90625 207.417969 301.699219 209.402344 302.890625 211.191406 C 307.65625 217.339844 311.226562 224.484375 311.820312 232.226562 C 312.617188 242.742188 311.027344 253.460938 307.058594 263.382812 C 306.464844 264.96875 304.28125 264.773438 303.882812 263.382812 C 300.3125 252.269531 295.351562 241.75 288.800781 231.828125 L 288.800781 200.074219 C 288.800781 193.527344 289.792969 187.175781 292.175781 181.023438 C 292.96875 179.039062 293.167969 176.855469 292.570312 174.476562 C 291.578125 171.101562 289.199219 168.71875 285.824219 167.726562 C 279.078125 165.941406 273.125 170.902344 273.125 177.253906 C 273.125 178.445312 273.320312 179.4375 273.71875 180.429688 C 275.902344 186.78125 277.292969 193.328125 277.292969 199.878906 L 277.292969 216.347656 L 261.613281 196.902344 C 259.628906 194.519531 258.636719 191.542969 258.042969 188.367188 C 257.644531 186.582031 256.652344 184.398438 254.070312 182.015625 C 252.683594 180.824219 251.09375 180.03125 249.308594 179.832031 C 243.554688 179.238281 238.59375 183.804688 238.59375 189.558594 C 238.59375 193.527344 240.777344 196.703125 244.148438 198.289062 C 247.523438 199.878906 250.5 202.0625 252.882812 204.839844 L 273.125 229.449219 C 294.359375 255.839844 302.691406 290.371094 295.945312 323.714844 C 295.550781 326.09375 292.570312 326.886719 290.785156 325.300781 L 279.671875 314.1875 C 279.671875 314.1875 279.671875 314.1875 279.472656 313.988281 L 265.382812 299.898438 C 251.691406 286.207031 249.308594 275.488281 246.132812 260.605469 C 244.347656 252.46875 242.363281 243.140625 238.195312 232.226562 L 236.210938 225.875 C 234.226562 219.328125 232.835938 212.578125 233.433594 205.832031 C 233.433594 204.640625 233.433594 203.449219 233.035156 202.0625 C 232.042969 198.886719 229.464844 196.503906 226.289062 195.710938 C 219.9375 194.121094 214.183594 198.886719 214.183594 205.039062 C 214.183594 207.21875 214.976562 209.007812 215.96875 210.792969 C 219.738281 215.953125 222.914062 221.3125 224.699219 227.265625 L 227.480469 235.796875 C 231.25 245.523438 233.035156 253.855469 234.625 261.398438 C 219.738281 250.878906 205.449219 248.5 184.8125 253.660156 C 183.820312 253.855469 180.84375 254.652344 180.84375 254.652344 C 176.277344 254.652344 172.707031 258.820312 173.699219 263.582031 C 174.292969 266.359375 176.476562 268.542969 179.253906 269.136719 C 181.835938 269.734375 184.214844 268.941406 185.804688 267.550781 C 188.382812 265.367188 191.558594 263.78125 194.734375 263.382812 C 213.984375 260.207031 233.828125 269.933594 242.761719 288.386719 C 227.28125 281.046875 210.410156 276.878906 193.144531 276.28125 C 190.367188 276.082031 187.789062 275.6875 185.007812 275.089844 C 183.820312 274.894531 182.429688 274.894531 181.039062 275.089844 C 178.660156 275.6875 175.878906 278.265625 175.285156 280.847656 C 173.699219 286.402344 177.867188 291.5625 183.222656 291.5625 C 184.414062 291.5625 185.605469 291.363281 186.597656 290.769531 C 190.566406 288.984375 194.933594 287.992188 199.296875 288.386719 C 226.289062 291.167969 251.890625 302.875 271.140625 322.125 L 289.398438 340.382812 C 291.382812 342.367188 290.390625 345.542969 287.808594 346.335938 L 276.894531 348.917969 C 261.613281 352.488281 245.339844 347.925781 234.226562 336.613281 L 232.441406 334.828125 C 219.9375 322.125 205.054688 312.203125 188.582031 305.457031 L 187.390625 305.058594 C 182.628906 303.074219 178.460938 300.492188 174.492188 297.515625 C 172.707031 296.328125 170.523438 295.53125 168.140625 296.128906 C 165.363281 296.722656 162.386719 299.5 161.789062 302.476562 C 160.796875 307.636719 164.765625 312.203125 169.730469 312.203125 C 169.730469 312.203125 169.925781 312.203125 170.125 312.203125 C 174.492188 312.402344 178.859375 313.59375 182.828125 315.578125 L 184.214844 316.171875 C 188.382812 317.957031 192.550781 319.941406 196.519531 321.925781 C 187.589844 322.324219 162.1875 326.09375 160.996094 339.191406 C 160.601562 343.160156 163.179688 346.933594 167.148438 347.925781 C 171.117188 348.917969 174.691406 346.734375 176.277344 343.558594 C 177.867188 340.582031 180.445312 338.199219 183.621094 336.8125 C 197.511719 330.460938 214.578125 333.039062 226.089844 344.75 C 236.804688 355.664062 251.691406 361.617188 266.574219 361.617188 C 270.941406 361.617188 275.304688 361.222656 279.472656 360.03125 L 301.304688 354.871094 C 302.496094 354.671875 303.6875 354.871094 304.480469 355.863281 L 305.472656 356.855469 C 307.058594 358.441406 306.859375 360.824219 305.074219 362.015625 L 290.191406 373.328125 C 278.085938 382.457031 262.605469 385.628906 247.917969 382.058594 L 247.523438 381.859375 C 233.828125 378.484375 219.9375 376.699219 205.847656 376.699219 L 181.238281 376.699219 C 178.460938 376.699219 175.484375 376.304688 172.902344 375.113281 C 171.316406 374.515625 169.53125 374.320312 167.746094 374.714844 C 165.363281 375.3125 162.78125 377.890625 161.988281 380.273438 C 160.402344 385.828125 164.570312 390.59375 169.730469 390.59375 C 170.917969 390.59375 172.109375 390.394531 173.101562 389.796875 C 175.882812 388.609375 178.660156 388.011719 181.636719 388.011719 L 205.847656 388.011719 C 205.847656 388.011719 205.847656 388.011719 205.847656 388.210938 C 204.0625 389.003906 202.472656 389.996094 200.886719 390.988281 C 189.175781 398.332031 180.046875 408.851562 174.691406 421.152344 C 173.5 424.128906 171.910156 426.910156 169.925781 429.289062 C 168.339844 431.078125 167.746094 433.65625 168.339844 436.433594 C 168.933594 439.214844 171.117188 441.394531 173.894531 442.191406 C 179.453125 443.777344 184.414062 439.609375 184.414062 434.449219 L 184.414062 433.65625 C 184.414062 430.28125 185.605469 424.925781 187.191406 421.949219 C 191.757812 413.414062 198.503906 406.269531 207.039062 400.910156 C 219.144531 393.371094 233.433594 390.789062 247.324219 393.371094 C 248.910156 393.570312 250.5 393.964844 252.085938 394.164062 C 254.46875 394.363281 258.039062 394.757812 260.222656 394.757812 C 260.820312 394.757812 261.414062 394.757812 262.011719 394.757812 C 264.789062 420.359375 285.230469 440.800781 310.828125 443.382812 L 310.828125 548.761719 C 310.828125 551.933594 313.410156 554.515625 316.585938 554.515625 C 319.761719 554.515625 322.339844 551.933594 322.339844 548.761719 L 322.339844 378.683594 C 322.339844 375.707031 325.714844 374.121094 327.898438 375.90625 L 336.230469 382.257812 C 346.949219 390.394531 360.246094 394.757812 373.542969 394.757812 C 376.914062 394.757812 380.289062 394.5625 383.664062 393.964844 L 384.457031 393.964844 L 384.851562 393.765625 C 385.449219 393.570312 386.042969 393.570312 386.640625 393.371094 L 386.835938 393.371094 C 408.269531 389.601562 432.285156 395.75 440.222656 415.597656 C 440.617188 416.390625 440.816406 418.972656 440.816406 418.972656 C 440.816406 424.132812 445.777344 428.296875 451.136719 426.710938 C 453.914062 425.917969 456.097656 423.734375 456.695312 420.957031 C 457.488281 417.78125 456.496094 414.804688 454.3125 413.015625 C 451.535156 410.636719 448.953125 408.054688 446.574219 405.277344 C 441.015625 398.53125 434.464844 393.171875 426.925781 389.003906 L 427.125 388.410156 L 439.03125 388.410156 C 442.007812 388.410156 444.785156 388.804688 447.367188 389.996094 C 448.953125 390.789062 450.738281 390.988281 452.722656 390.394531 C 455.503906 389.796875 457.6875 387.617188 458.480469 384.835938 C 460.066406 379.28125 455.898438 374.320312 450.738281 374.320312 C 449.746094 374.320312 448.753906 374.515625 447.960938 374.714844 C 444.984375 375.707031 442.007812 376.503906 438.832031 376.503906 L 428.117188 376.503906 C 414.222656 376.503906 400.132812 378.289062 386.441406 381.464844 L 384.851562 381.859375 C 384.257812 382.058594 383.664062 382.058594 383.066406 382.257812 L 382.472656 382.257812 L 382.074219 382.457031 C 368.578125 384.636719 354.6875 381.265625 343.773438 372.929688 L 328.890625 361.816406 C 327.101562 360.625 327.101562 358.046875 328.492188 356.65625 L 329.285156 355.863281 C 330.078125 355.070312 331.269531 354.671875 332.460938 354.871094 L 352.109375 359.632812 C 356.277344 360.625 360.640625 361.222656 365.007812 361.222656 C 379.890625 361.222656 394.378906 355.265625 405.09375 344.550781 C 415.414062 334.03125 430.496094 330.859375 443.59375 335.222656 C 448.558594 336.8125 452.527344 340.382812 455.503906 344.550781 C 457.089844 346.933594 460.066406 348.320312 463.242188 347.925781 C 466.21875 347.527344 469.394531 344.550781 469.988281 341.773438 C 470.785156 337.605469 468.402344 333.835938 465.027344 332.246094 Z M 274.3125 396.347656 C 273.917969 394.5625 275.109375 392.773438 276.894531 392.378906 C 284.433594 390.394531 291.382812 386.820312 297.730469 382.058594 L 305.667969 375.90625 C 307.851562 374.121094 311.226562 375.90625 311.226562 378.683594 L 311.226562 427.304688 C 311.226562 429.488281 309.042969 431.273438 306.859375 430.679688 C 290.390625 426.910156 277.289062 413.414062 274.3125 396.347656 Z M 274.3125 396.347656 " fill-opacity="1" fill-rule="nonzero"/><path fill="#ffffff" d="M 384.851562 433.457031 C 384.851562 434.160156 384.785156 434.859375 384.648438 435.550781 C 384.511719 436.238281 384.304688 436.910156 384.039062 437.558594 C 383.769531 438.210938 383.4375 438.828125 383.046875 439.410156 C 382.65625 439.996094 382.210938 440.539062 381.714844 441.035156 C 381.214844 441.535156 380.675781 441.976562 380.089844 442.367188 C 379.503906 442.757812 378.886719 443.089844 378.238281 443.359375 C 377.585938 443.628906 376.917969 443.832031 376.226562 443.96875 C 375.535156 444.105469 374.839844 444.175781 374.136719 444.175781 C 373.433594 444.175781 372.734375 444.105469 372.046875 443.96875 C 371.355469 443.832031 370.683594 443.628906 370.035156 443.359375 C 369.386719 443.089844 368.769531 442.757812 368.183594 442.367188 C 367.597656 441.976562 367.054688 441.535156 366.558594 441.035156 C 366.0625 440.539062 365.617188 439.996094 365.226562 439.410156 C 364.835938 438.828125 364.503906 438.210938 364.234375 437.558594 C 363.964844 436.910156 363.761719 436.238281 363.625 435.550781 C 363.488281 434.859375 363.421875 434.160156 363.421875 433.457031 C 363.421875 432.753906 363.488281 432.058594 363.625 431.367188 C 363.761719 430.675781 363.964844 430.007812 364.234375 429.355469 C 364.503906 428.707031 364.835938 428.089844 365.226562 427.503906 C 365.617188 426.917969 366.0625 426.378906 366.558594 425.878906 C 367.054688 425.382812 367.597656 424.9375 368.183594 424.546875 C 368.769531 424.15625 369.386719 423.828125 370.035156 423.558594 C 370.683594 423.289062 371.355469 423.085938 372.046875 422.949219 C 372.734375 422.808594 373.433594 422.742188 374.136719 422.742188 C 374.839844 422.742188 375.535156 422.808594 376.226562 422.949219 C 376.917969 423.085938 377.585938 423.289062 378.238281 423.558594 C 378.886719 423.828125 379.503906 424.15625 380.089844 424.546875 C 380.675781 424.9375 381.214844 425.382812 381.714844 425.878906 C 382.210938 426.378906 382.65625 426.917969 383.046875 427.503906 C 383.4375 428.089844 383.769531 428.707031 384.039062 429.355469 C 384.304688 430.007812 384.511719 430.675781 384.648438 431.367188 C 384.785156 432.058594 384.851562 432.753906 384.851562 433.457031 Z M 384.851562 433.457031 " fill-opacity="1" fill-rule="nonzero"/><path fill="#68c5b2" d="M 267.765625 78.027344 L 267.765625 155.226562 C 197.710938 175.667969 146.3125 240.5625 146.3125 317.363281 L 146.3125 401.707031 C 146.3125 448.539062 184.214844 486.445312 231.050781 486.445312 L 264.191406 486.445312 C 266.175781 486.445312 267.765625 488.035156 267.765625 490.019531 L 267.765625 548.957031 C 267.765625 550.941406 266.175781 552.53125 264.191406 552.53125 L 205.449219 552.53125 C 192.550781 552.53125 180.046875 547.371094 170.722656 538.242188 L 142.9375 510.65625 C 133.015625 500.734375 127.457031 487.238281 127.457031 473.347656 L 127.457031 460.25 L 103.84375 436.632812 C 91.734375 424.527344 84.789062 407.859375 84.789062 390.59375 L 84.789062 287.394531 C 84.789062 270.128906 91.539062 253.660156 103.84375 241.554688 L 118.527344 226.867188 L 118.527344 170.109375 C 118.527344 163.164062 121.304688 156.613281 126.070312 151.851562 L 138.371094 139.546875 L 144.921875 133 C 149.882812 128.039062 155.835938 124.066406 162.386719 121.289062 C 168.738281 118.511719 175.878906 117.121094 183.023438 117.121094 L 207.433594 92.710938 C 216.761719 83.386719 229.265625 78.226562 242.5625 78.226562 Z M 267.765625 78.027344 " fill-opacity="1" fill-rule="nonzero"/><path fill="#68c5b2" d="M 545.601562 287.394531 L 545.601562 390.59375 C 545.601562 407.859375 538.65625 424.328125 526.550781 436.632812 L 502.933594 460.25 L 502.933594 472.753906 C 502.933594 486.84375 497.375 500.140625 487.453125 510.0625 L 459.671875 537.648438 C 450.542969 546.777344 438.039062 551.933594 424.941406 551.933594 L 366.59375 551.933594 C 364.609375 551.933594 363.023438 550.347656 363.023438 548.363281 L 363.023438 489.421875 C 363.023438 487.4375 364.609375 485.851562 366.59375 485.851562 L 399.539062 485.851562 C 446.375 485.851562 484.277344 447.945312 484.277344 401.109375 L 484.277344 317.363281 C 484.277344 240.757812 433.277344 175.863281 363.222656 155.226562 L 363.222656 78.027344 L 388.027344 78.027344 C 401.125 78.027344 413.828125 83.1875 423.15625 92.515625 L 447.566406 116.925781 C 454.710938 116.925781 461.65625 118.3125 468.203125 121.089844 C 474.554688 123.871094 480.507812 127.640625 485.667969 132.800781 L 492.21875 139.347656 L 504.519531 151.652344 C 509.285156 156.417969 512.0625 163.164062 512.0625 169.910156 L 512.0625 226.667969 L 526.746094 241.355469 C 538.65625 253.660156 545.601562 270.128906 545.601562 287.394531 Z M 545.601562 287.394531 " fill-opacity="1" fill-rule="nonzero"/></svg>