<svg xmlns="http://www.w3.org/2000/svg" xmlns:xlink="http://www.w3.org/1999/xlink" width="840" zoomAndPan="magnify" viewBox="0 0 630 629.999998" height="840" preserveAspectRatio="xMidYMid meet" version="1.0"><path fill="#f65859" d="M 268.125 170.324219 C 265.648438 170.699219 260.773438 171.300781 257.25 171.75 C 250.050781 172.574219 241.199219 174.148438 234 175.875 C 231.300781 176.550781 227.699219 177.375 225.898438 177.75 C 224.101562 178.125 222.300781 178.726562 221.851562 178.949219 C 221.398438 179.25 219.75 179.773438 218.324219 180.074219 C 215.851562 180.523438 212.625 181.574219 208.875 183.074219 C 208.050781 183.375 206.550781 183.898438 205.5 184.125 C 204.449219 184.425781 202.648438 185.023438 201.375 185.625 C 200.175781 186.148438 196.800781 187.574219 193.875 188.699219 C 187.5 191.25 170.476562 199.425781 165.375 202.5 C 163.351562 203.699219 161.101562 204.976562 160.5 205.199219 C 159.148438 205.800781 149.023438 212.398438 148.5 213.074219 C 148.273438 213.300781 146.476562 214.574219 144.375 216 C 142.351562 217.425781 140.476562 218.699219 140.25 218.925781 C 140.023438 219.148438 138.226562 220.726562 136.125 222.375 C 128.25 228.675781 119.851562 236.699219 115.050781 242.773438 C 113.398438 244.726562 111.976562 246.523438 111.75 246.75 C 109.800781 248.625 99.75 263.851562 99.75 264.976562 C 99.75 265.199219 98.773438 267.523438 97.574219 270.148438 C 92.851562 280.5 91.5 287.023438 91.5 299.175781 C 91.5 312.074219 93.148438 319.199219 98.476562 329.25 C 105.148438 341.925781 112.726562 349.875 122.398438 354.601562 C 127.351562 357 128.476562 357.226562 134.699219 357.300781 C 141.074219 357.375 141.675781 357.226562 144.300781 355.199219 C 147.601562 352.726562 149.550781 348.601562 150.300781 342.75 C 150.824219 338.550781 151.5 335.773438 153.523438 328.5 C 155.25 322.574219 156.75 318 157.949219 315.226562 C 158.550781 313.949219 159 312.675781 159 312.375 C 159 311.925781 161.476562 306.375 164.101562 300.75 C 164.851562 299.324219 166.648438 296.023438 168.226562 293.398438 C 169.726562 290.851562 171 288.449219 171 288.148438 C 171 287.476562 177.75 277.574219 179.851562 275.25 C 180.75 274.199219 181.5 273.148438 181.5 272.851562 C 181.5 271.726562 194.851562 256.726562 201.074219 250.949219 C 207.675781 244.726562 221.851562 233.773438 226.949219 231 C 228.523438 230.101562 231.601562 228.449219 233.625 227.25 C 237.75 224.851562 241.800781 222.824219 246.375 220.875 C 248.023438 220.199219 250.425781 219.148438 251.625 218.625 C 253.648438 217.726562 264.898438 213.898438 270.375 212.25 C 272.851562 211.5 278.324219 210.449219 287.625 208.800781 C 306 205.5 340.800781 206.25 344.550781 210 C 345.375 210.824219 341.773438 212.625 335.023438 214.875 C 332.023438 215.851562 328.574219 217.050781 327.375 217.5 C 326.101562 218.023438 324.449219 218.699219 323.625 219 C 312.75 223.199219 290.773438 235.574219 285 240.75 C 283.125 242.398438 281.324219 243.75 280.949219 243.75 C 280.648438 243.75 277.050781 247.050781 273.074219 251.023438 C 255.601562 268.648438 247.875 287.851562 251.476562 304.5 C 254.25 317.023438 264.449219 328.5 279.675781 336 C 282.148438 337.273438 284.699219 338.25 285.300781 338.25 C 285.898438 338.25 286.574219 338.550781 286.800781 338.925781 C 287.023438 339.300781 288.449219 339.824219 289.949219 340.125 C 291.449219 340.351562 293.25 340.875 293.925781 341.25 C 299.476562 344.023438 328.875 345.300781 338.925781 343.125 C 346.050781 341.625 352.5 339.898438 354.148438 338.925781 C 354.898438 338.550781 355.949219 338.25 356.476562 338.25 C 357.601562 338.25 375.074219 329.550781 375.675781 328.648438 C 375.976562 328.351562 378 326.851562 380.25 325.351562 C 389.324219 319.199219 402.226562 304.199219 408.675781 292.125 C 409.574219 290.476562 410.625 288.601562 410.925781 288 C 411.300781 287.398438 412.199219 285.375 412.875 283.5 C 413.625 281.625 414.675781 279.074219 415.199219 277.726562 C 415.800781 276.449219 416.25 274.875 416.25 274.199219 C 416.25 273.523438 416.550781 272.398438 416.925781 271.648438 C 417.898438 269.925781 419.25 258.675781 419.25 253.125 C 419.175781 248.25 417.675781 237.898438 416.175781 232.648438 C 415.5 230.175781 415.5 229.199219 416.175781 228.523438 C 417.675781 227.023438 445.199219 227.476562 452.625 229.050781 C 461.851562 231.074219 470.773438 233.625 475.125 235.425781 C 489.976562 241.648438 500.773438 249.375 506.175781 257.625 C 507.226562 259.273438 508.273438 260.773438 508.5 261 C 509.25 261.75 511.351562 266.625 512.550781 270.300781 C 514.050781 274.949219 514.050781 285.074219 512.625 289.125 C 512.023438 290.773438 511.5 292.574219 511.5 293.175781 C 511.5 294.675781 509.101562 300 508.425781 300 C 508.125 300 507.675781 300.898438 507.375 302.023438 C 507.148438 303.148438 506.625 304.273438 506.398438 304.5 C 506.101562 304.726562 505.273438 306.074219 504.523438 307.5 C 501.074219 314.25 486.675781 328.648438 475.875 336.148438 C 472.5 338.476562 466.726562 342.074219 456.75 348 C 452.625 350.476562 434.25 359.023438 431.773438 359.625 C 430.648438 359.925781 429.523438 360.449219 429.300781 360.824219 C 429.074219 361.199219 428.398438 361.5 427.726562 361.5 C 427.125 361.5 425.550781 361.949219 424.273438 362.550781 C 417.898438 365.25 414 366.601562 404.625 369.375 C 402.148438 370.125 399.300781 370.949219 398.25 371.324219 C 390.601562 373.648438 379.425781 376.273438 361.351562 379.875 C 349.875 382.125 344.101562 382.949219 324.75 385.125 C 308.925781 386.925781 271.574219 389.25 258.148438 389.25 C 252.824219 389.25 250.574219 389.550781 248.398438 390.675781 C 241.125 394.351562 237.976562 402.675781 238.875 415.875 C 239.324219 423 240.523438 427.726562 243.375 433.875 C 244.351562 435.898438 245.625 438.824219 246.300781 440.25 C 248.773438 445.726562 256.726562 453.675781 262.875 456.976562 C 269.851562 460.726562 269.699219 460.648438 287.773438 460.273438 C 311.324219 459.75 331.273438 457.5 360 452.25 C 361.875 451.949219 365.625 451.125 368.476562 450.449219 C 371.25 449.773438 375.601562 448.800781 378.226562 448.199219 C 386.925781 446.101562 389.625 445.425781 390.75 444.824219 C 391.425781 444.449219 393.449219 443.925781 395.25 443.625 C 397.050781 443.324219 399.074219 442.800781 399.75 442.5 C 401.175781 441.824219 405.449219 440.324219 408.375 439.5 C 410.550781 438.898438 420.898438 435.148438 424.125 433.875 C 424.949219 433.5 427.351562 432.601562 429.375 431.851562 C 449.550781 424.199219 478.351562 407.625 493.351562 394.949219 C 512.101562 379.199219 522.375 367.125 532.125 349.125 C 535.949219 342.074219 538.5 336.898438 538.5 336.074219 C 538.5 335.699219 539.023438 334.425781 539.625 333.300781 C 540.226562 332.101562 540.75 330.523438 540.75 329.851562 C 540.75 329.175781 541.125 328.351562 541.5 328.125 C 541.949219 327.898438 542.25 326.925781 542.25 326.023438 C 542.25 325.125 542.773438 323.398438 543.375 322.199219 C 543.976562 321.074219 544.5 319.199219 544.5 318.074219 C 544.5 317.023438 544.949219 314.625 545.550781 312.75 C 548.25 304.273438 549.976562 278.023438 548.25 270.976562 C 547.800781 269.023438 547.125 266.023438 546.824219 264.375 C 546.523438 262.726562 545.851562 260.625 545.398438 259.726562 C 544.875 258.824219 544.5 257.476562 544.5 256.648438 C 544.5 255.074219 542.023438 250.050781 538.273438 244.125 C 535.949219 240.449219 533.324219 237.300781 528 231.824219 C 524.851562 228.601562 514.199219 220.5 513.074219 220.5 C 512.699219 220.5 511.875 220.050781 511.351562 219.523438 C 509.851562 218.175781 500.625 213.75 493.125 210.824219 C 489.976562 209.625 483.898438 207.75 483 207.75 C 482.476562 207.75 481.050781 207.300781 479.773438 206.699219 C 478.425781 206.101562 476.175781 205.425781 474.75 205.273438 C 473.324219 205.050781 470.625 204.523438 468.75 204.074219 C 451.648438 200.324219 427.125 198.976562 403.425781 200.625 L 394.648438 201.226562 L 391.800781 199.050781 C 390.148438 197.925781 388.574219 196.574219 388.125 196.125 C 386.773438 194.699219 376.273438 188.550781 370.5 185.773438 C 361.5 181.574219 357.300781 179.925781 347.625 177 C 340.273438 174.824219 325.875 172.050781 316.125 170.925781 C 306 169.800781 274.273438 169.351562 268.125 170.324219 Z M 375.300781 241.574219 C 376.5 244.425781 376.351562 253.648438 375 259.125 C 371.773438 272.476562 366.375 282.449219 357.75 291 C 350.175781 298.648438 344.625 302.175781 334.5 305.550781 C 329.699219 307.199219 315.675781 307.199219 312 305.550781 C 302.550781 301.351562 306.449219 288.375 321.976562 272.773438 C 329.851562 264.824219 344.625 253.5 350.25 250.949219 C 350.851562 250.726562 352.425781 249.824219 353.625 249.074219 C 357.601562 246.523438 362.175781 244.050781 367.125 241.875 C 368.773438 241.199219 370.648438 240.300781 371.25 239.925781 C 373.273438 238.800781 374.324219 239.25 375.300781 241.574219 Z M 375.300781 241.574219 " fill-opacity="1" fill-rule="nonzero"/></svg>